<?xml version="1.0" encoding="UTF-8"?>
<svg width="69px" height="80px" viewBox="0 0 69 80" version="1.1" xmlns="http://www.w3.org/2000/svg" xmlns:xlink="http://www.w3.org/1999/xlink">
    <title>Jupyter@1x</title>
    <g id="页面-1" stroke="none" stroke-width="1" fill="none" fill-rule="evenodd">
        <g id="切图" transform="translate(-846.000000, -1306.000000)" fill-rule="nonzero">
            <g id="Jupyter" transform="translate(846.000000, 1306.000000)">
                <g id="g" transform="translate(0.000000, 29.189189)" fill="#4E4E4E">
                    <g id="path" transform="translate(0.000000, 3.076923)">
                        <g id="path0_fill-link" transform="translate(0.295332, 0.013306)">
                            <path d="M2.70107469,8.42358462 C2.70107469,10.8205385 2.508143,11.6012615 2.01202187,12.1765231 C1.45986479,12.6706923 0.743034693,12.9439692 0,12.9435538 L0.192934791,14.3132308 C1.34488747,14.3287077 2.46264988,13.9242769 3.33500639,13.1764 C3.80437961,12.6074923 4.15366585,11.9504769 4.36201474,11.2445077 C4.57037912,10.5385385 4.63353391,9.79809231 4.54773317,9.06733846 L4.54773317,0 L2.70107469,0 L2.70107469,8.3688 L2.70107469,8.42358462 Z" id="path0_fill"></path>
                        </g>
                    </g>
                    <g id="path" transform="translate(7.739558, 3.076923)">
                        <g id="path1_fill-link" transform="translate(0.512039, 0.028690)">
                            <path d="M8.51667125,7.32783077 C8.51667125,8.35509231 8.51667125,9.27278462 8.59934521,10.0672 L6.95941032,10.0672 L6.84916806,8.43727692 C6.50615086,9.01398462 6.01560221,9.49012308 5.4274113,9.81730769 C4.83920491,10.1444923 4.17433047,10.3110615 3.50036978,10.3000462 C1.90177961,10.3000462 0,9.43715385 0,5.91704615 L0,0.0684844615 L1.84665848,0.0684844615 L1.84665848,5.54723077 C1.84665848,7.45110769 2.43924545,8.72490769 4.10674865,8.72490769 C4.44981229,8.72858462 4.7901516,8.66412308 5.10782948,8.53532308 C5.42550737,8.40652308 5.7141,8.21598462 5.95670418,7.97486154 C6.19929287,7.73375385 6.3910172,7.44690769 6.52060835,7.13118462 C6.65018403,6.81544615 6.71504152,6.47716923 6.71135749,6.1362 L6.71135749,0 L8.55800049,0 L8.55800049,7.27304615 L8.51667125,7.32783077 Z" id="path1_fill"></path>
                        </g>
                    </g>
                    <g id="path" transform="translate(20.122850, 2.536383)">
                        <g id="path2_fill-link" transform="translate(0.063145, 0.400000)">
                            <path d="M0.0826860295,3.49636923 C0.0826860295,2.22255385 0.0826860295,1.18159385 0,0.236509231 L1.65372678,0.236509231 L1.73640074,1.94861538 C2.10485012,1.33005385 2.63527297,0.822452308 3.27112408,0.479929231 C3.90699066,0.137406923 4.62444767,-0.0271978462 5.34702826,0.003663 C7.80005012,0.003663 9.6467086,2.04449231 9.6467086,5.0852 C9.6467086,8.67378462 7.42796314,10.4543846 5.03006241,10.4543846 C4.41633096,10.4816 3.80591204,10.3509231 3.25787396,10.0749846 C2.70983587,9.79903077 2.24273808,9.38716923 1.90177961,8.87924615 L1.90177961,8.87924615 L1.90177961,14.3579846 L0.0826860295,14.3579846 L0.0826860295,3.53746154 L0.0826860295,3.49636923 Z M1.90177961,6.16726154 C1.90677936,6.41578462 1.93445602,6.66333846 1.98446904,6.90689231 C2.14082359,7.51506154 2.49676585,8.05404615 2.99595184,8.43855385 C3.49515332,8.82307692 4.10910147,9.03116923 4.74066486,9.02991339 C6.68378919,9.02991339 7.82761843,7.45476923 7.82761843,5.16738462 C7.82761843,3.16764615 6.75270221,1.45553231 4.80957789,1.45553231 C4.04060639,1.51811846 3.32101327,1.85732308 2.78569902,2.40953846 C2.25038477,2.96175385 1.93611229,3.68907692 1.90177961,4.45515385 L1.90177961,6.16726154 Z" id="path2_fill"></path>
                        </g>
                    </g>
                    <g id="path" transform="translate(30.958231, 3.076923)">
                        <g id="path3_fill-link" transform="translate(0.125061, 0.059459)">
                            <path d="M2.03959017,0.0273936923 L4.25833563,5.93075385 C4.49261204,6.5882 4.74066486,7.38261538 4.90604373,7.97158462 C5.09897543,7.36892308 5.30568354,6.60189231 5.55375184,5.88966154 L7.56577371,0.0273936923 L9.50889803,0.0273936923 L6.75270221,7.14976923 C5.37459656,10.5739846 4.53395676,12.3408923 3.26609337,13.4092462 C2.62750246,13.9889692 1.84894939,14.3947385 1.00601403,14.5871692 L0.551240713,13.0531231 C1.14063435,12.8606462 1.68781179,12.5585231 2.16362432,12.1628308 C2.83592875,11.6182769 3.3694629,10.9237538 3.72086978,10.1356923 C3.7960828,9.99921538 3.84734963,9.85098462 3.87245676,9.69738462 C3.85679189,9.53209231 3.81493636,9.37030769 3.74843808,9.218 L0,0 L2.01202187,0 L2.03959017,0.0273936923 Z" id="path3_fill"></path>
                        </g>
                    </g>
                    <g id="path" transform="translate(41.793612, 0.000000)">
                        <g id="path4_fill-link" transform="translate(0.310811, 0.290229)">
                            <path d="M3.39012752,0 L3.39012752,2.87633846 L6.03608108,2.87633846 L6.03608108,4.24603077 L3.39012752,4.24603077 L3.39012752,9.6426 C3.39012752,10.8753231 3.74843808,11.5875538 4.76823317,11.5875538 C5.13042899,11.5934462 5.4918199,11.552 5.84314939,11.4642923 L5.92583882,12.8339692 C5.3990226,13.0153692 4.84312113,13.0989385 4.28588845,13.0805231 C3.91686634,13.1034769 3.54720958,13.0468154 3.20228845,12.9144154 C2.85736732,12.7820154 2.54535479,12.5770154 2.287643,12.3134923 C1.72630835,11.5672769 1.47024663,10.6374 1.57103735,9.71109231 L1.57103735,4.23233846 L0,4.23233846 L0,2.86264615 L1.59859017,2.86264615 L1.59859017,0.424603077 L3.39012752,0 Z" id="path4_fill"></path>
                        </g>
                    </g>
                    <g id="path" transform="translate(49.533170, 2.536383)">
                        <g id="path5_fill-link" transform="translate(0.186978, 0.446154)">
                            <path d="M1.82213956,5.50613846 C1.78474201,5.97066154 1.84925897,6.43770769 2.01124791,6.87501538 C2.17323686,7.31232308 2.42882801,7.70944615 2.76037518,8.03895385 C3.09190688,8.36847692 3.49146929,8.62250769 3.93146314,8.78350769 C4.371457,8.94450769 4.84137199,9.00863077 5.3087484,8.97146154 C6.25407346,8.99247692 7.19323784,8.81512308 8.06494423,8.45096923 L8.38191007,9.82066154 C7.3122258,10.2586 6.16200369,10.4685846 5.00555897,10.4370154 C4.33138157,10.4828923 3.65520737,10.3832923 3.02341179,10.1450308 C2.39160074,9.90678462 1.81913661,9.53552308 1.34524504,9.05673846 C0.871362752,8.57793846 0.507286216,8.00292308 0.277990983,7.37115385 C0.0486948206,6.73936923 -0.0403946093,6.06578462 0.0168332285,5.39656923 C0.0168332285,2.38326154 1.82213956,0 4.77128256,0 C8.07872064,0 8.90558403,2.87633846 8.90558403,4.71172308 C8.92326118,4.99452308 8.92326118,5.27813846 8.90558403,5.56093846 L1.78081032,5.56093846 L1.82213956,5.50613846 Z M7.22430442,4.13646154 C7.27749066,3.77026154 7.25108329,3.397 7.14684693,3.04181538 C7.04262604,2.68663077 6.86300639,2.35776923 6.62010811,2.0774 C6.37719435,1.79704615 6.07665184,1.57169231 5.73871179,1.41652923 C5.40077174,1.26136923 5.03328206,1.18000923 4.66104029,1.17793231 C3.9038484,1.23240615 3.19444054,1.56596923 2.67183464,2.11326154 C2.14922875,2.66053846 1.85111646,3.38207692 1.83593145,4.13646154 L7.22430442,4.13646154 Z" id="path5_fill"></path>
                        </g>
                    </g>
                    <g id="path" transform="translate(60.909091, 2.536383)">
                        <g id="path6_fill-link" transform="translate(0.435872, 0.369231)">
                            <path d="M0.0826860295,3.37273846 C0.0826860295,2.19481538 0.0826860295,1.18124 0,0.249852308 L1.65372678,0.249852308 L1.65372678,2.20850769 L1.73640074,2.20850769 C1.90998354,1.60398462 2.26861916,1.06817538 2.76252678,0.67546 C3.2564344,0.282743077 3.86111057,0.0526092308 4.49261204,0.0170058462 C4.66642703,-0.0056686 4.84247101,-0.0056686 5.016286,0.0170058462 L5.016286,1.72912308 C4.80567715,1.70487692 4.59296314,1.70487692 4.3823543,1.72912308 C3.75678133,1.7532 3.16140811,2.0028 2.70745209,2.43130769 C2.25349607,2.8598 1.97200835,3.43787692 1.91555602,4.05758462 C1.86402604,4.33784615 1.83636486,4.62192308 1.83288206,4.90678462 L1.83288206,10.2348769 L0.0137810101,10.2348769 L0.0137810101,3.38643077 L0.0826860295,3.37273846 Z" id="path6_fill"></path>
                        </g>
                    </g>
                </g>
                <g id="g" transform="translate(2.162162, 0.000000)">
                    <g id="path" transform="translate(48.820040, 0.000000)" fill="#767677">
                        <g id="path7_fill-link" transform="translate(0.199868, 0.524591)">
                            <path d="M9.3022944,4.39262493 C9.35868886,5.31914016 9.13918853,6.24153485 8.67172841,7.04231194 C8.20426829,7.84310451 7.51004258,8.4860157 6.677453,8.88917708 C5.84486341,9.29232297 4.91162452,9.43745549 3.99661819,9.30609422 C3.08161187,9.17471745 2.22625471,8.77279533 1.53950713,8.15150918 C0.852761094,7.53023851 0.365715623,6.71771947 0.140416505,5.8174765 C-0.0848827673,4.91723353 -0.0382376361,3.97000721 0.274409347,3.09648573 C0.587056177,2.22296424 1.15155303,1.46266595 1.89598616,0.912460499 C2.64042083,0.362255045 3.53110165,0.0470431363 4.45454555,0.00697923374 C5.05999934,-0.026478591 5.66607014,0.0605910069 6.23788161,0.263181072 C6.8097085,0.465770207 7.33601569,0.779884753 7.78653896,1.18745789 C8.2370468,1.59503257 8.60290125,2.08802462 8.86303151,2.63808446 C9.12316177,3.1881443 9.27244667,3.78442844 9.3022944,4.39262493 L9.3022944,4.39262493 Z" id="path7_fill"></path>
                        </g>
                    </g>
                    <g id="path" transform="translate(2.003955, 47.476952)" fill="#F37726">
                        <g id="path8_fill-link" transform="translate(0.323929, 0.418249)">
                            <path d="M28.8392274,11.0330767 C16.4796467,11.0330767 5.61678668,6.57847342 0,0 C2.17933131,5.9180887 6.1116882,11.0236584 11.267771,14.6294943 C16.4238075,18.2353613 22.5562426,20.1682928 28.8392274,20.1682928 C35.1223665,20.1682928 41.2546473,18.2353613 46.4108227,14.6294943 C51.5668438,11.0236584 55.4991852,5.9180887 57.6786091,0 C52.0755662,6.57847342 41.2538761,11.0330767 28.8392274,11.0330767 Z" id="path8_fill"></path>
                        </g>
                    </g>
                    <g id="path" transform="translate(2.003955, 6.740555)" fill="#F37726">
                        <g id="path9_fill-link" transform="translate(0.323929, 0.274646)">
                            <path d="M28.8392274,9.1352626 C41.1989624,9.1352626 52.0618378,13.5898659 57.6786091,20.1682928 C55.4991852,14.2502506 51.5668438,9.14468095 46.4108227,5.53884499 C41.2546473,1.93300902 35.1223665,0 28.8392274,0 C22.5562426,0 16.4238075,1.93300902 11.267771,5.53884499 C6.1116882,9.14468095 2.17933131,14.2502506 0,20.1682928 C5.61678668,13.5760792 16.424733,9.1352626 28.8392274,9.1352626 Z" id="path9_fill"></path>
                        </g>
                    </g>
                    <g id="path" transform="translate(2.003955, 66.065811)" fill="#9E9E9E">
                        <g id="path10_fill-link" transform="translate(0.431905, 0.139416)">
                            <path d="M11.7165975,5.52485687 C11.7890958,6.69186546 11.5140032,7.8541339 10.9263809,8.86357093 C10.3387432,9.87300796 9.46518431,10.683916 8.41699697,11.1929874 C7.36880962,11.7020588 6.19344166,11.8862434 5.04065616,11.7220728 C3.88785524,11.5578867 2.80982017,11.0527964 1.94389677,10.2711349 C1.07797183,9.48947332 0.463363191,8.46662133 0.178372169,7.33291777 C-0.106617465,6.19919873 -0.0490858576,5.00596435 0.343637561,3.90519406 C0.736361134,2.80443926 1.44649637,1.84601316 2.38356071,1.15202133 C3.32064047,0.458026398 4.44222083,0.0598863342 5.60541833,0.00832763862 C6.36740686,-0.0326034653 7.12996612,0.077635287 7.8495354,0.332745231 C8.56908926,0.587857188 9.23155452,0.982839469 9.79906236,1.4951314 C10.3665702,2.00742642 10.8280299,2.62697761 11.1570336,3.31842122 C11.4860527,4.00984934 11.6761989,4.75961549 11.7165975,5.52485687 L11.7165975,5.52485687 Z" id="path10_fill"></path>
                        </g>
                    </g>
                    <g id="path" transform="translate(0.000000, 7.745358)" fill="#616262">
                        <g id="path11_fill-link" transform="translate(0.260910, 0.121832)">
                            <path d="M3.47160672,6.78405072 C2.80562452,6.80251565 2.14906711,6.62282334 1.58450547,6.26757475 C1.01995001,5.91231066 0.572591984,5.39733729 0.298694753,4.78743682 C0.0247978299,4.17752085 -0.0634095267,3.49989496 0.0451655478,2.83977358 C0.153740622,2.1796522 0.454249993,1.56649867 0.908902584,1.07744437 C1.36355672,0.588383873 1.95205669,0.245242822 2.60039249,0.0911747926 C3.24871285,-0.0628930822 3.92792986,-0.0210088191 4.55263428,0.211559809 C5.17732327,0.444129676 5.71959552,0.856999088 6.11124087,1.39824781 C6.50290165,1.93949963 6.7264588,2.58496679 6.75379222,3.25346865 C6.7798145,4.15739841 6.44974647,5.03516435 5.8352381,5.6961687 C5.22072973,6.35718854 4.37137297,6.74811225 3.47160672,6.78405072 Z" id="path11_fill"></path>
                        </g>
                    </g>
                </g>
            </g>
        </g>
    </g>
</svg>