<?xml version="1.0" encoding="UTF-8"?>
<svg width="16px" height="16px" viewBox="0 0 16 16" version="1.1" xmlns="http://www.w3.org/2000/svg" xmlns:xlink="http://www.w3.org/1999/xlink">
    <title>关闭@1x</title>
    <g id="页面-1" stroke="none" stroke-width="1" fill="none" fill-rule="evenodd">
        <g id="切图" transform="translate(-439.000000, -212.000000)">
            <g id="编组" transform="translate(439.000000, 212.000000)">
                <rect id="矩形" fill-opacity="0.01" fill="#FFFFFF" x="0" y="0" width="16" height="16"></rect>
                <path d="M8,0.666666667 C9.97081276,0.666666667 11.8194912,1.44859169 13.1854497,2.81455027 C14.5514083,4.18050886 15.3333333,6.02918726 15.3333333,8 C15.3333333,9.97081274 14.5514083,11.8194911 13.1854497,13.1854497 C11.8194911,14.5514083 9.97081274,15.3333333 8,15.3333333 C6.02918726,15.3333333 4.18050886,14.5514083 2.81455027,13.1854497 C1.44859169,11.8194912 0.666666667,9.97081276 0.666666667,8 C0.666666667,6.02918724 1.44859169,4.18050885 2.81455027,2.81455027 C4.18050885,1.44859169 6.02918724,0.666666667 8,0.666666667 Z M8,10.6666667 C7.53976271,10.6666667 7.16666667,11.0397627 7.16666667,11.5 C7.16666667,11.9602373 7.53976271,12.3333333 8,12.3333333 C8.46023729,12.3333333 8.83333333,11.9602373 8.83333333,11.5 C8.83333333,11.0397627 8.46023729,10.6666667 8,10.6666667 Z M8,3.33333333 C7.63181017,3.33333333 7.33333333,3.63181017 7.33333333,4 L7.33333333,4 L7.33333333,9.33333333 L7.34056171,9.43184845 C7.38817799,9.75332493 7.66528197,10 8,10 C8.36818983,10 8.66666667,9.70152317 8.66666667,9.33333333 L8.66666667,9.33333333 L8.66666667,4 L8.65943829,3.90148489 C8.61182201,3.5800084 8.33471803,3.33333333 8,3.33333333 Z" id="形状结合" fill="#FAAD15"></path>
            </g>
        </g>
    </g>
</svg>