<?xml version="1.0" encoding="UTF-8"?>
<svg width="16px" height="16px" viewBox="0 0 16 16" version="1.1" xmlns="http://www.w3.org/2000/svg" xmlns:xlink="http://www.w3.org/1999/xlink">
    <title>提示@1x</title>
    <g id="页面-1" stroke="none" stroke-width="1" fill="none" fill-rule="evenodd">
        <g id="切图" transform="translate(-173.000000, -212.000000)">
            <g id="编组" transform="translate(173.000000, 212.000000)">
                <rect id="矩形" fill-opacity="0.01" fill="#FFFFFF" x="0" y="0" width="16" height="16"></rect>
                <path d="M8,0.666666667 C9.97081276,0.666666667 11.8194912,1.44859169 13.1854497,2.81455027 C14.5514083,4.18050886 15.3333333,6.02918726 15.3333333,8 C15.3333333,9.97081274 14.5514083,11.8194911 13.1854497,13.1854497 C11.8194911,14.5514083 9.97081274,15.3333333 8,15.3333333 C6.02918726,15.3333333 4.18050886,14.5514083 2.81455027,13.1854497 C1.44859169,11.8194912 0.666666667,9.97081276 0.666666667,8 C0.666666667,6.02918724 1.44859169,4.18050885 2.81455027,2.81455027 C4.18050885,1.44859169 6.02918724,0.666666667 8,0.666666667 Z M8.16666667,6 L7.5,6 C7.13181017,6 6.83333333,6.29847683 6.83333333,6.66666667 C6.83333333,7.0013847 7.0800084,7.27848868 7.40148489,7.32610495 L7.5,7.33333333 L7.49933333,10.667 L7,10.6666667 C6.66528197,10.6666667 6.38817799,10.9133417 6.34056171,11.2348182 L6.33333333,11.3333333 C6.33333333,11.6680514 6.5800084,11.9451553 6.90148489,11.9927716 L7,12 L9.33333333,12 C9.70152317,12 10,11.7015232 10,11.3333333 C10,10.9986153 9.75332493,10.7215113 9.43184845,10.673895 L9.33333333,10.6666667 L8.83333333,10.667 L8.83333333,6.66666667 C8.83333333,6.33194864 8.58665826,6.05484466 8.26518178,6.00722838 L8.16666667,6 Z M8,3.66666667 C7.53976271,3.66666667 7.16666667,4.03976271 7.16666667,4.5 C7.16666667,4.96023729 7.53976271,5.33333333 8,5.33333333 C8.46023729,5.33333333 8.83333333,4.96023729 8.83333333,4.5 C8.83333333,4.03976271 8.46023729,3.66666667 8,3.66666667 Z" id="形状结合" fill="#2F88FF"></path>
                <g transform="translate(8.000000, 8.166667) scale(-1, 1) rotate(-180.000000) translate(-8.000000, -8.166667) translate(6.000000, 3.666667)">
                    <g transform="translate(0.000000, 0.166667)"></g>
                </g>
            </g>
        </g>
    </g>
</svg>