<?xml version="1.0" encoding="UTF-8"?>
<svg width="54px" height="54px" viewBox="0 0 54 54" version="1.1" xmlns="http://www.w3.org/2000/svg" xmlns:xlink="http://www.w3.org/1999/xlink">
    <title>编组rwrw备份 8@1x</title>
    <g id="页面-1" stroke="none" stroke-width="1" fill="none" fill-rule="evenodd">
        <g id="注册登录00" transform="translate(-2407.000000, -832.000000)" fill="#52C41A" fill-rule="nonzero">
            <g id="编组rwrw备份-8" transform="translate(2407.000000, 832.000000)">
                <path d="M27,0 C41.9121,0 54,12.0879 54,27 C54,41.9121 41.9121,54 27,54 C12.0879,54 0,41.9121 0,27 C0,12.0879 12.0879,0 27,0 Z M22.2561,34.83 L16.524,29.0979 C15.8460991,28.3960165 14.8422295,28.1145248 13.8982296,28.3616164 C12.9542297,28.608708 12.217008,29.3459297 11.9699164,30.2899296 C11.7228248,31.2339295 12.0043165,32.2377991 12.7062,32.9157 L20.3445,40.554 C21.3988496,41.6080312 23.1079504,41.6080312 24.1623,40.554 L43.2513,21.4623 C43.9698631,20.7884759 44.2644285,19.7767935 44.0198994,18.8225517 C43.7753703,17.8683099 43.03056,17.1229725 42.0764915,16.8777684 C41.1224229,16.6325642 40.1105323,16.9264138 39.4362,17.6445 L22.2534,34.8246 L22.2561,34.83 Z" id="形状"></path>
            </g>
        </g>
    </g>
</svg>