<?xml version="1.0" encoding="UTF-8"?>
<svg width="54px" height="54px" viewBox="0 0 54 54" version="1.1" xmlns="http://www.w3.org/2000/svg" xmlns:xlink="http://www.w3.org/1999/xlink">
    <title>编组rewrw1@1x</title>
    <g id="页面-1" stroke="none" stroke-width="1" fill="none" fill-rule="evenodd">
        <g id="注册登录00" transform="translate(-2935.000000, -832.000000)" fill="#FF7575" fill-rule="nonzero">
            <g id="编组rewrw1" transform="translate(2935.000000, 832.000000)">
                <path d="M26.9208984,0 C12.0563965,0 0,12.0498047 0,26.9208984 C0,41.7854004 12.0498047,53.8417969 26.9208984,53.8417969 C41.7854004,53.8417969 53.8417969,41.7919922 53.8417969,26.9208984 C53.8417969,12.0563965 41.7919922,0 26.9208984,0 Z M39.1289062,36.1032715 C39.8276367,36.802002 39.8276367,37.935791 39.1289062,38.6345215 L38.6345215,39.1289063 C37.935791,39.8276367 36.802002,39.8276367 36.1032715,39.1289063 L26.9208984,29.9465332 L17.7451172,39.1289063 C17.0463867,39.8276367 15.9125977,39.8276367 15.2138672,39.1289063 L14.7194824,38.6345215 C14.020752,37.935791 14.020752,36.802002 14.7194824,36.1032715 L23.8952637,26.9208984 L14.7194824,17.7451172 C14.020752,17.0463867 14.020752,15.9125977 14.7194824,15.2138672 L15.2138672,14.7194824 C15.9125977,14.020752 17.0463867,14.020752 17.7451172,14.7194824 L26.9274902,23.9018555 L36.1032715,14.7128906 C36.802002,14.0141602 37.935791,14.0141602 38.6345215,14.7128906 L39.1289062,15.2072754 C39.8276367,15.9060059 39.8276367,17.0397949 39.1289062,17.7385254 L29.953125,26.9208984 L39.1289062,36.1032715 Z" id="形状"></path>
            </g>
        </g>
    </g>
</svg>