<?xml version="1.0" encoding="UTF-8"?>
<svg width="18px" height="18px" viewBox="0 0 18 18" version="1.1" xmlns="http://www.w3.org/2000/svg" xmlns:xlink="http://www.w3.org/1999/xlink">
    <title>语言6@1x</title>
    <g id="页面-1" stroke="none" stroke-width="1" fill="none" fill-rule="evenodd" opacity="0.8">
        <g id="切图" transform="translate(-987.000000, -24.000000)">
            <g id="语言6" transform="translate(987.000000, 24.000000)">
                <rect id="矩形" fill-opacity="0.01" fill="#FFFFFF" fill-rule="nonzero" x="0" y="0" width="18" height="18"></rect>
                <path d="M9,16.5 C13.1421375,16.5 16.5,13.1421375 16.5,9 C16.5,4.8578625 13.1421375,1.5 9,1.5 C4.8578625,1.5 1.5,4.8578625 1.5,9 C1.5,13.1421375 4.8578625,16.5 9,16.5 Z" id="路径" stroke="#FFFFFF" stroke-width="1.5"></path>
                <path d="M2.25,11.6194875 C3.23697,12.0152625 3.947475,12.0152625 4.3814625,11.6194875 C5.0324625,11.025825 4.4707125,9.2240625 5.38245,8.72715 C6.29415,8.2302375 7.683225,10.43295 8.98155,9.70815 C10.2798375,8.9833875 8.859225,7.0507875 9.7602,6.2673 C10.661175,5.4838125 11.8327875,6.367425 12.0375375,5.0573625 C12.242325,3.7473 11.0820375,4.3154625 10.8594,3.077505 C10.7109375,2.2521975 10.7109375,1.81822125 10.8594,1.7755725" id="路径" stroke="#FFFFFF" stroke-width="1.5" stroke-linecap="round"></path>
                <path d="M10.882875,16.256325 C10.1800875,15.5371125 9.927075,14.868525 10.123875,14.2506375 C10.419075,13.3237875 10.9060125,13.378575 11.1183375,12.8054625 C11.330625,12.2323875 10.7308875,11.4161625 12.06165,10.7184 C12.948825,10.2532125 14.168625,10.7922 15.72105,12.335325" id="路径" stroke="#FFFFFF" stroke-width="1.5" stroke-linecap="round"></path>
            </g>
        </g>
    </g>
</svg>