<?xml version="1.0" encoding="UTF-8"?>
<svg width="62px" height="63px" viewBox="0 0 62 63" version="1.1" xmlns="http://www.w3.org/2000/svg" xmlns:xlink="http://www.w3.org/1999/xlink">
    <title>数据支持@1x</title>
    <defs>
        <linearGradient x1="50%" y1="0%" x2="50%" y2="100%" id="linearGradient-1">
            <stop stop-color="#90BBFF" offset="0%"></stop>
            <stop stop-color="#2B55FF" offset="100%"></stop>
        </linearGradient>
        <linearGradient x1="22.6423139%" y1="17.9043651%" x2="76.2373326%" y2="83.7690455%" id="linearGradient-2">
            <stop stop-color="#DBECFE" offset="0%"></stop>
            <stop stop-color="#BCDDFC" offset="100%"></stop>
        </linearGradient>
        <linearGradient x1="50%" y1="0%" x2="50%" y2="100%" id="linearGradient-3">
            <stop stop-color="#71A9FF" offset="0%"></stop>
            <stop stop-color="#1342FD" offset="100%"></stop>
        </linearGradient>
        <linearGradient x1="50%" y1="-13.5514226%" x2="50%" y2="100%" id="linearGradient-4">
            <stop stop-color="#76AFFF" offset="0%"></stop>
            <stop stop-color="#0C3BFD" offset="100%"></stop>
        </linearGradient>
        <linearGradient x1="50%" y1="0%" x2="50%" y2="100%" id="linearGradient-5">
            <stop stop-color="#71A9FF" offset="0%"></stop>
            <stop stop-color="#1342FD" offset="100%"></stop>
        </linearGradient>
        <linearGradient x1="50%" y1="-13.5514226%" x2="50%" y2="100%" id="linearGradient-6">
            <stop stop-color="#76AFFF" offset="0%"></stop>
            <stop stop-color="#0C3BFD" offset="100%"></stop>
        </linearGradient>
    </defs>
    <g id="页面-1" stroke="none" stroke-width="1" fill="none" fill-rule="evenodd">
        <g id="切图" transform="translate(-1052.000000, -1815.000000)">
            <g id="数据支持" transform="translate(1052.000000, 1816.000000)">
                <g id="编组-2复制-5">
                    <path d="M30.9469048,-0.345143644 L58.0477106,15.0714159 L58.0477106,45.9121906 L30.9469048,61.3287502 L3.84609908,45.9121906 L3.84609908,15.0714159 L30.9469048,-0.345143644 Z" id="多边形复制-3" stroke="url(#linearGradient-1)" stroke-width="0.6" fill="#F2F8FF" opacity="0.36"></path>
                    <polygon id="多边形复制-5" fill="#EBF4FE" points="30.9469048 30.50229 57.7531996 15.2616317 57.7531996 45.7429483 30.9469048 60.9836066"></polygon>
                    <polygon id="多边形复制-3" fill="#DFEEFE" opacity="0.602469308" points="30.9469048 30.5001827 30.9469048 60.9836066 4.14503784 45.7418946 4.14503784 15.2584708"></polygon>
                    <polygon id="路径" fill="url(#linearGradient-2)" opacity="0.601004464" points="31.1034662 7.20278994 51.3877059 19.367054 51.332657 42.2230604 30.9912826 53.7808166 10.7377918 42.3186551 10.7928407 19.4626487"></polygon>
                    <line x1="31.0341799" y1="30.4124544" x2="4.14503784" y2="15.2584708" id="直线" stroke="#7DA7FF" stroke-width="0.6" opacity="0.3" stroke-linecap="round" stroke-linejoin="round" stroke-dasharray="1,2"></line>
                    <line x1="31.0341799" y1="30.4124544" x2="57.7531996" y2="15.2616317" id="直线复制" stroke="#7DA7FF" stroke-width="0.6" opacity="0.3" stroke-linecap="round" stroke-linejoin="round" stroke-dasharray="1,2"></line>
                    <line x1="30.9469048" y1="60.4848444" x2="31.0341799" y2="30.1510462" id="直线复制-2" stroke="#7DA7FF" stroke-width="0.6" opacity="0.3" stroke-linecap="round" stroke-linejoin="round" stroke-dasharray="1,2"></line>
                </g>
                <g id="编组" transform="translate(18.000000, 17.500000)">
                    <polygon id="路径" fill-opacity="0.01" fill="#FFFFFF" fill-rule="nonzero" points="0 0 26 0 26 26 0 26"></polygon>
                    <path d="M5.8342375,18.1458333 C3.5851725,18.7413417 2.16666667,19.6126667 2.16666667,20.5833333 C2.16666667,22.3782542 7.0169125,23.8333333 13,23.8333333 C18.9830875,23.8333333 23.8333333,22.3782542 23.8333333,20.5833333 C23.8333333,19.6126667 22.4148167,18.7413417 20.1657625,18.1458333 C18.2560625,18.6514792 15.7474417,18.9583333 13,18.9583333 C10.2525583,18.9583333 7.7439375,18.6514792 5.8342375,18.1458333 Z" id="路径" stroke="url(#linearGradient-4)" stroke-width="2" fill-opacity="0.5" fill="url(#linearGradient-3)" opacity="0.5" stroke-linecap="round" stroke-linejoin="round"></path>
                    <path d="M5.8342375,13.2708333 C3.5851725,13.8663417 2.16666667,14.7376667 2.16666667,15.7083333 C2.16666667,17.5032542 7.0169125,18.9583333 13,18.9583333 C18.9830875,18.9583333 23.8333333,17.5032542 23.8333333,15.7083333 C23.8333333,14.7376667 22.4148167,13.8663417 20.1657625,13.2708333 C18.2560625,13.7764792 15.7474417,14.0833333 13,14.0833333 C10.2525583,14.0833333 7.7439375,13.7764792 5.8342375,13.2708333 Z" id="路径" stroke="url(#linearGradient-4)" stroke-width="2" fill-opacity="0.6" fill="url(#linearGradient-3)" opacity="0.659625" stroke-linecap="round" stroke-linejoin="round"></path>
                    <path d="M5.8342375,8.39583333 C3.5851725,8.99134167 2.16666667,9.86266667 2.16666667,10.8333333 C2.16666667,12.6282542 7.0169125,14.0833333 13,14.0833333 C18.9830875,14.0833333 23.8333333,12.6282542 23.8333333,10.8333333 C23.8333333,9.86266667 22.4148167,8.99134167 20.1657625,8.39583333 C18.2560625,8.90147917 15.7474417,9.20833333 13,9.20833333 C10.2525583,9.20833333 7.7439375,8.90147917 5.8342375,8.39583333 Z" id="路径" stroke="url(#linearGradient-4)" stroke-width="2" fill-opacity="0.8" fill="url(#linearGradient-3)" opacity="0.8" stroke-linecap="round" stroke-linejoin="round"></path>
                    <ellipse id="椭圆形" stroke="url(#linearGradient-6)" stroke-width="2" fill="url(#linearGradient-5)" stroke-linecap="round" stroke-linejoin="round" cx="13" cy="5.95833333" rx="10.8333333" ry="3.25"></ellipse>
                </g>
            </g>
        </g>
    </g>
</svg>